<mxfile host="app.diagrams.net" modified="2022-04-01T08:32:13.197Z" agent="5.0 (Windows NT 10.0; Win64; x64) AppleWebKit/537.36 (KHTML, like Gecko) Chrome/99.0.4844.84 Safari/537.36" etag="cpEyl6HxIgw5bCWv93_W" version="14.7.6" type="github">
  <diagram id="HxJf9XEo6R9eN1S3QajC" name="Page-1">
    <mxGraphModel dx="868" dy="450" grid="1" gridSize="10" guides="1" tooltips="1" connect="1" arrows="1" fold="1" page="1" pageScale="1" pageWidth="850" pageHeight="1100" math="0" shadow="0">
      <root>
        <mxCell id="0" />
        <mxCell id="1" parent="0" />
        <mxCell id="idztmzxzJbZ5Xqv4Oxt_-17" style="edgeStyle=orthogonalEdgeStyle;rounded=0;orthogonalLoop=1;jettySize=auto;html=1;exitX=0.5;exitY=1;exitDx=0;exitDy=0;entryX=0.5;entryY=0;entryDx=0;entryDy=0;" edge="1" parent="1" source="idztmzxzJbZ5Xqv4Oxt_-1" target="idztmzxzJbZ5Xqv4Oxt_-2">
          <mxGeometry relative="1" as="geometry" />
        </mxCell>
        <mxCell id="idztmzxzJbZ5Xqv4Oxt_-1" value="Start" style="ellipse;whiteSpace=wrap;html=1;" vertex="1" parent="1">
          <mxGeometry x="330" width="120" height="80" as="geometry" />
        </mxCell>
        <mxCell id="idztmzxzJbZ5Xqv4Oxt_-18" style="edgeStyle=orthogonalEdgeStyle;rounded=0;orthogonalLoop=1;jettySize=auto;html=1;exitX=0.5;exitY=1;exitDx=0;exitDy=0;entryX=0.5;entryY=0;entryDx=0;entryDy=0;" edge="1" parent="1" source="idztmzxzJbZ5Xqv4Oxt_-2" target="idztmzxzJbZ5Xqv4Oxt_-3">
          <mxGeometry relative="1" as="geometry" />
        </mxCell>
        <mxCell id="idztmzxzJbZ5Xqv4Oxt_-2" value="Requirements&amp;nbsp;" style="rounded=1;whiteSpace=wrap;html=1;" vertex="1" parent="1">
          <mxGeometry x="330" y="110" width="120" height="60" as="geometry" />
        </mxCell>
        <mxCell id="idztmzxzJbZ5Xqv4Oxt_-11" value="" style="edgeStyle=orthogonalEdgeStyle;rounded=0;orthogonalLoop=1;jettySize=auto;html=1;" edge="1" parent="1" source="idztmzxzJbZ5Xqv4Oxt_-3" target="idztmzxzJbZ5Xqv4Oxt_-4">
          <mxGeometry relative="1" as="geometry" />
        </mxCell>
        <mxCell id="idztmzxzJbZ5Xqv4Oxt_-3" value="Test Case" style="rounded=1;whiteSpace=wrap;html=1;" vertex="1" parent="1">
          <mxGeometry x="330" y="190" width="120" height="60" as="geometry" />
        </mxCell>
        <mxCell id="idztmzxzJbZ5Xqv4Oxt_-10" value="" style="edgeStyle=orthogonalEdgeStyle;rounded=0;orthogonalLoop=1;jettySize=auto;html=1;" edge="1" parent="1" source="idztmzxzJbZ5Xqv4Oxt_-4" target="idztmzxzJbZ5Xqv4Oxt_-5">
          <mxGeometry relative="1" as="geometry" />
        </mxCell>
        <mxCell id="idztmzxzJbZ5Xqv4Oxt_-4" value="Test Script" style="rounded=1;whiteSpace=wrap;html=1;" vertex="1" parent="1">
          <mxGeometry x="330" y="280" width="120" height="60" as="geometry" />
        </mxCell>
        <mxCell id="idztmzxzJbZ5Xqv4Oxt_-12" value="" style="edgeStyle=orthogonalEdgeStyle;rounded=0;orthogonalLoop=1;jettySize=auto;html=1;" edge="1" parent="1" source="idztmzxzJbZ5Xqv4Oxt_-5" target="idztmzxzJbZ5Xqv4Oxt_-6">
          <mxGeometry relative="1" as="geometry" />
        </mxCell>
        <mxCell id="idztmzxzJbZ5Xqv4Oxt_-5" value="Test sequence" style="rounded=1;whiteSpace=wrap;html=1;" vertex="1" parent="1">
          <mxGeometry x="330" y="370" width="120" height="60" as="geometry" />
        </mxCell>
        <mxCell id="idztmzxzJbZ5Xqv4Oxt_-13" value="" style="edgeStyle=orthogonalEdgeStyle;rounded=0;orthogonalLoop=1;jettySize=auto;html=1;" edge="1" parent="1" source="idztmzxzJbZ5Xqv4Oxt_-6" target="idztmzxzJbZ5Xqv4Oxt_-8">
          <mxGeometry relative="1" as="geometry" />
        </mxCell>
        <mxCell id="idztmzxzJbZ5Xqv4Oxt_-6" value="Execution and Report generation" style="rounded=1;whiteSpace=wrap;html=1;" vertex="1" parent="1">
          <mxGeometry x="330" y="460" width="120" height="60" as="geometry" />
        </mxCell>
        <mxCell id="idztmzxzJbZ5Xqv4Oxt_-8" value="End" style="ellipse;whiteSpace=wrap;html=1;" vertex="1" parent="1">
          <mxGeometry x="330" y="560" width="120" height="80" as="geometry" />
        </mxCell>
      </root>
    </mxGraphModel>
  </diagram>
</mxfile>
